<mxfile host="65bd71144e">
    <diagram id="CSxQuEzhFW49lUW0gGWz" name="Page-1">
        <mxGraphModel dx="1474" dy="1382" grid="1" gridSize="10" guides="1" tooltips="1" connect="1" arrows="1" fold="1" page="1" pageScale="1" pageWidth="850" pageHeight="1100" math="0" shadow="0">
            <root>
                <mxCell id="0"/>
                <mxCell id="1" parent="0"/>
                <mxCell id="44" value="loop" style="shape=umlFrame;whiteSpace=wrap;html=1;" vertex="1" parent="1">
                    <mxGeometry x="150" y="430" width="500" height="200" as="geometry"/>
                </mxCell>
                <mxCell id="2" value="" style="shape=umlLifeline;participant=umlActor;perimeter=lifelinePerimeter;whiteSpace=wrap;html=1;container=1;collapsible=0;recursiveResize=0;verticalAlign=top;spacingTop=36;outlineConnect=0;" vertex="1" parent="1">
                    <mxGeometry x="160" y="70" width="20" height="670" as="geometry"/>
                </mxCell>
                <mxCell id="22" value="" style="html=1;points=[];perimeter=orthogonalPerimeter;" vertex="1" parent="2">
                    <mxGeometry x="5" y="80" width="10" height="100" as="geometry"/>
                </mxCell>
                <mxCell id="39" value="" style="html=1;points=[];perimeter=orthogonalPerimeter;" vertex="1" parent="2">
                    <mxGeometry x="5" y="240" width="10" height="100" as="geometry"/>
                </mxCell>
                <mxCell id="4" value="User1" style="text;html=1;strokeColor=none;fillColor=none;align=center;verticalAlign=middle;whiteSpace=wrap;rounded=0;" vertex="1" parent="1">
                    <mxGeometry x="140" y="40" width="60" height="30" as="geometry"/>
                </mxCell>
                <mxCell id="5" value="" style="shape=umlLifeline;participant=umlActor;perimeter=lifelinePerimeter;whiteSpace=wrap;html=1;container=1;collapsible=0;recursiveResize=0;verticalAlign=top;spacingTop=36;outlineConnect=0;" vertex="1" parent="1">
                    <mxGeometry x="260" y="70" width="20" height="670" as="geometry"/>
                </mxCell>
                <mxCell id="35" value="" style="html=1;points=[];perimeter=orthogonalPerimeter;" vertex="1" parent="5">
                    <mxGeometry x="5" y="220" width="10" height="50" as="geometry"/>
                </mxCell>
                <mxCell id="42" value="" style="endArrow=open;endFill=0;endSize=12;html=1;" edge="1" parent="5">
                    <mxGeometry width="160" relative="1" as="geometry">
                        <mxPoint x="-85.00111111111107" y="330" as="sourcePoint"/>
                        <mxPoint x="165.61000000000024" y="330" as="targetPoint"/>
                        <Array as="points">
                            <mxPoint x="-64.38999999999999" y="330"/>
                        </Array>
                    </mxGeometry>
                </mxCell>
                <mxCell id="43" value="startSession" style="edgeLabel;html=1;align=center;verticalAlign=middle;resizable=0;points=[];" vertex="1" connectable="0" parent="42">
                    <mxGeometry x="-0.7066" y="2" relative="1" as="geometry">
                        <mxPoint x="13" y="-8" as="offset"/>
                    </mxGeometry>
                </mxCell>
                <mxCell id="6" value="User2" style="text;html=1;strokeColor=none;fillColor=none;align=center;verticalAlign=middle;whiteSpace=wrap;rounded=0;" vertex="1" parent="1">
                    <mxGeometry x="240" y="40" width="60" height="30" as="geometry"/>
                </mxCell>
                <mxCell id="7" value=":API" style="shape=umlLifeline;perimeter=lifelinePerimeter;whiteSpace=wrap;html=1;container=1;collapsible=0;recursiveResize=0;outlineConnect=0;" vertex="1" parent="1">
                    <mxGeometry x="370" y="70" width="100" height="670" as="geometry"/>
                </mxCell>
                <mxCell id="21" value="" style="html=1;points=[];perimeter=orthogonalPerimeter;" vertex="1" parent="7">
                    <mxGeometry x="45" y="80" width="10" height="100" as="geometry"/>
                </mxCell>
                <mxCell id="28" value="" style="endArrow=block;endFill=1;endSize=12;html=1;" edge="1" parent="7">
                    <mxGeometry width="160" relative="1" as="geometry">
                        <mxPoint x="-100.00263157894739" y="230" as="sourcePoint"/>
                        <mxPoint x="50" y="230" as="targetPoint"/>
                        <Array as="points">
                            <mxPoint x="-79.44999999999999" y="230"/>
                        </Array>
                    </mxGeometry>
                </mxCell>
                <mxCell id="29" value="joinQuizSession" style="edgeLabel;html=1;align=center;verticalAlign=middle;resizable=0;points=[];" vertex="1" connectable="0" parent="28">
                    <mxGeometry x="-0.7066" y="2" relative="1" as="geometry">
                        <mxPoint x="13" y="-8" as="offset"/>
                    </mxGeometry>
                </mxCell>
                <mxCell id="32" value="" style="html=1;points=[];perimeter=orthogonalPerimeter;" vertex="1" parent="7">
                    <mxGeometry x="45" y="220" width="10" height="70" as="geometry"/>
                </mxCell>
                <mxCell id="74" value="" style="html=1;points=[];perimeter=orthogonalPerimeter;" vertex="1" parent="7">
                    <mxGeometry x="45" y="500" width="10" height="50" as="geometry"/>
                </mxCell>
                <mxCell id="8" value=":QuizSessionHandler" style="shape=umlLifeline;perimeter=lifelinePerimeter;whiteSpace=wrap;html=1;container=1;collapsible=0;recursiveResize=0;outlineConnect=0;" vertex="1" parent="1">
                    <mxGeometry x="560" y="70" width="140" height="670" as="geometry"/>
                </mxCell>
                <mxCell id="14" value="" style="endArrow=block;endFill=1;endSize=12;html=1;" edge="1" parent="8" target="8">
                    <mxGeometry width="160" relative="1" as="geometry">
                        <mxPoint x="-139.99956521739125" y="80" as="sourcePoint"/>
                        <mxPoint x="60" y="80" as="targetPoint"/>
                        <Array as="points">
                            <mxPoint x="-119.63" y="80"/>
                        </Array>
                    </mxGeometry>
                </mxCell>
                <mxCell id="15" value="createQuizSession" style="edgeLabel;html=1;align=center;verticalAlign=middle;resizable=0;points=[];" vertex="1" connectable="0" parent="14">
                    <mxGeometry x="-0.7066" y="2" relative="1" as="geometry">
                        <mxPoint x="20" y="-8" as="offset"/>
                    </mxGeometry>
                </mxCell>
                <mxCell id="20" value="" style="html=1;points=[];perimeter=orthogonalPerimeter;" vertex="1" parent="8">
                    <mxGeometry x="60" y="80" width="10" height="100" as="geometry"/>
                </mxCell>
                <mxCell id="24" value="Generate the code" style="shape=note2;boundedLbl=1;whiteSpace=wrap;html=1;size=25;verticalAlign=top;align=center;" vertex="1" parent="8">
                    <mxGeometry x="130" y="160" width="120" height="60" as="geometry"/>
                </mxCell>
                <mxCell id="25" value="" style="endArrow=none;dashed=1;html=1;entryX=1.016;entryY=0.724;entryDx=0;entryDy=0;entryPerimeter=0;exitX=0;exitY=0.5;exitDx=0;exitDy=0;exitPerimeter=0;" edge="1" parent="8" source="24" target="20">
                    <mxGeometry width="50" height="50" relative="1" as="geometry">
                        <mxPoint x="60" y="240" as="sourcePoint"/>
                        <mxPoint x="110" y="190" as="targetPoint"/>
                    </mxGeometry>
                </mxCell>
                <mxCell id="26" value="" style="html=1;verticalAlign=bottom;endArrow=open;dashed=1;endSize=8;entryX=0.878;entryY=0.955;entryDx=0;entryDy=0;entryPerimeter=0;" edge="1" parent="8" target="21">
                    <mxGeometry relative="1" as="geometry">
                        <mxPoint x="60" y="180" as="sourcePoint"/>
                        <mxPoint x="-145" y="180" as="targetPoint"/>
                    </mxGeometry>
                </mxCell>
                <mxCell id="33" value="" style="html=1;points=[];perimeter=orthogonalPerimeter;" vertex="1" parent="8">
                    <mxGeometry x="70" y="220" width="10" height="50" as="geometry"/>
                </mxCell>
                <mxCell id="53" value="" style="endArrow=none;dashed=1;html=1;" edge="1" parent="8" source="47">
                    <mxGeometry width="50" height="50" relative="1" as="geometry">
                        <mxPoint x="100" y="440" as="sourcePoint"/>
                        <mxPoint x="150" y="390" as="targetPoint"/>
                    </mxGeometry>
                </mxCell>
                <mxCell id="68" value="" style="endArrow=none;dashed=1;html=1;entryX=0;entryY=0.5;entryDx=0;entryDy=0;entryPerimeter=0;" edge="1" parent="8" target="67">
                    <mxGeometry width="50" height="50" relative="1" as="geometry">
                        <mxPoint x="70" y="480" as="sourcePoint"/>
                        <mxPoint x="165" y="470" as="targetPoint"/>
                    </mxGeometry>
                </mxCell>
                <mxCell id="70" value="" style="endArrow=open;endFill=1;endSize=12;html=1;exitX=-0.108;exitY=0.109;exitDx=0;exitDy=0;exitPerimeter=0;" edge="1" parent="8" target="7">
                    <mxGeometry width="160" relative="1" as="geometry">
                        <mxPoint x="70.00000000000011" y="505.45000000000005" as="sourcePoint"/>
                        <mxPoint x="-129.17000000000024" y="499.9999999999998" as="targetPoint"/>
                    </mxGeometry>
                </mxCell>
                <mxCell id="71" value="showLeaderboard" style="edgeLabel;html=1;align=center;verticalAlign=middle;resizable=0;points=[];" vertex="1" connectable="0" parent="70">
                    <mxGeometry x="0.4226" y="-2" relative="1" as="geometry">
                        <mxPoint y="-8" as="offset"/>
                    </mxGeometry>
                </mxCell>
                <mxCell id="10" value="" style="endArrow=block;endFill=1;endSize=12;html=1;" edge="1" parent="1" source="2">
                    <mxGeometry width="160" relative="1" as="geometry">
                        <mxPoint x="60" y="200" as="sourcePoint"/>
                        <mxPoint x="420" y="150" as="targetPoint"/>
                        <Array as="points">
                            <mxPoint x="190" y="150"/>
                        </Array>
                    </mxGeometry>
                </mxCell>
                <mxCell id="11" value="createQuizSession" style="edgeLabel;html=1;align=center;verticalAlign=middle;resizable=0;points=[];" vertex="1" connectable="0" parent="10">
                    <mxGeometry x="-0.7066" y="2" relative="1" as="geometry">
                        <mxPoint x="13" y="-8" as="offset"/>
                    </mxGeometry>
                </mxCell>
                <mxCell id="27" value="" style="html=1;verticalAlign=bottom;endArrow=open;dashed=1;endSize=8;entryX=0.878;entryY=0.955;entryDx=0;entryDy=0;entryPerimeter=0;exitX=-0.078;exitY=0.973;exitDx=0;exitDy=0;exitPerimeter=0;" edge="1" parent="1" source="21">
                    <mxGeometry relative="1" as="geometry">
                        <mxPoint x="370" y="254.5" as="sourcePoint"/>
                        <mxPoint x="173.77999999999997" y="250" as="targetPoint"/>
                    </mxGeometry>
                </mxCell>
                <mxCell id="30" value="" style="endArrow=block;endFill=1;endSize=12;html=1;" edge="1" parent="1" target="8">
                    <mxGeometry width="160" relative="1" as="geometry">
                        <mxPoint x="424.99736842105267" y="300" as="sourcePoint"/>
                        <mxPoint x="575" y="300" as="targetPoint"/>
                        <Array as="points">
                            <mxPoint x="445.55" y="300"/>
                        </Array>
                    </mxGeometry>
                </mxCell>
                <mxCell id="31" value="joinQuizSession" style="edgeLabel;html=1;align=center;verticalAlign=middle;resizable=0;points=[];" vertex="1" connectable="0" parent="30">
                    <mxGeometry x="-0.7066" y="2" relative="1" as="geometry">
                        <mxPoint x="13" y="-8" as="offset"/>
                    </mxGeometry>
                </mxCell>
                <mxCell id="34" value="" style="html=1;verticalAlign=bottom;endArrow=open;dashed=1;endSize=8;" edge="1" parent="1" source="33">
                    <mxGeometry relative="1" as="geometry">
                        <mxPoint x="630" y="374.5" as="sourcePoint"/>
                        <mxPoint x="430" y="340" as="targetPoint"/>
                    </mxGeometry>
                </mxCell>
                <mxCell id="36" value="" style="html=1;verticalAlign=bottom;endArrow=open;dashed=1;endSize=8;entryX=1.426;entryY=0.965;entryDx=0;entryDy=0;entryPerimeter=0;" edge="1" parent="1">
                    <mxGeometry relative="1" as="geometry">
                        <mxPoint x="470" y="340" as="sourcePoint"/>
                        <mxPoint x="269.2600000000002" y="340" as="targetPoint"/>
                    </mxGeometry>
                </mxCell>
                <mxCell id="37" value="" style="html=1;verticalAlign=bottom;endArrow=open;dashed=1;endSize=8;entryX=1.426;entryY=0.965;entryDx=0;entryDy=0;entryPerimeter=0;" edge="1" parent="1" source="7">
                    <mxGeometry relative="1" as="geometry">
                        <mxPoint x="370.37" y="350" as="sourcePoint"/>
                        <mxPoint x="169.63000000000022" y="350" as="targetPoint"/>
                    </mxGeometry>
                </mxCell>
                <mxCell id="38" value="notifyJoin" style="edgeLabel;html=1;align=center;verticalAlign=middle;resizable=0;points=[];" vertex="1" connectable="0" parent="37">
                    <mxGeometry x="0.6659" y="4" relative="1" as="geometry">
                        <mxPoint y="-14" as="offset"/>
                    </mxGeometry>
                </mxCell>
                <mxCell id="40" value="User waits until they are reqdy to start" style="shape=note2;boundedLbl=1;whiteSpace=wrap;html=1;size=25;verticalAlign=top;align=center;" vertex="1" parent="1">
                    <mxGeometry y="240" width="120" height="60" as="geometry"/>
                </mxCell>
                <mxCell id="41" value="" style="endArrow=none;dashed=1;html=1;entryX=0.5;entryY=1;entryDx=0;entryDy=0;entryPerimeter=0;exitX=-0.208;exitY=0.516;exitDx=0;exitDy=0;exitPerimeter=0;" edge="1" parent="1" source="39" target="40">
                    <mxGeometry width="50" height="50" relative="1" as="geometry">
                        <mxPoint x="50" y="440" as="sourcePoint"/>
                        <mxPoint x="100" y="390" as="targetPoint"/>
                    </mxGeometry>
                </mxCell>
                <mxCell id="45" value="" style="endArrow=block;endFill=1;endSize=12;html=1;" edge="1" parent="1">
                    <mxGeometry width="160" relative="1" as="geometry">
                        <mxPoint x="430.00043478260886" y="160" as="sourcePoint"/>
                        <mxPoint x="639.5000000000002" y="160" as="targetPoint"/>
                        <Array as="points">
                            <mxPoint x="450.37" y="160"/>
                        </Array>
                    </mxGeometry>
                </mxCell>
                <mxCell id="46" value="createQuizSession" style="edgeLabel;html=1;align=center;verticalAlign=middle;resizable=0;points=[];" vertex="1" connectable="0" parent="45">
                    <mxGeometry x="-0.7066" y="2" relative="1" as="geometry">
                        <mxPoint x="20" y="-8" as="offset"/>
                    </mxGeometry>
                </mxCell>
                <mxCell id="47" value="" style="html=1;points=[];perimeter=orthogonalPerimeter;" vertex="1" parent="1">
                    <mxGeometry x="625" y="440" width="10" height="100" as="geometry"/>
                </mxCell>
                <mxCell id="49" value="" style="endArrow=open;endFill=1;endSize=12;html=1;entryX=0.975;entryY=0.109;entryDx=0;entryDy=0;entryPerimeter=0;exitX=-0.108;exitY=0.109;exitDx=0;exitDy=0;exitPerimeter=0;" edge="1" parent="1" source="47" target="50">
                    <mxGeometry width="160" relative="1" as="geometry">
                        <mxPoint x="430" y="500" as="sourcePoint"/>
                        <mxPoint x="590" y="500" as="targetPoint"/>
                    </mxGeometry>
                </mxCell>
                <mxCell id="51" value="startQuestion" style="edgeLabel;html=1;align=center;verticalAlign=middle;resizable=0;points=[];" vertex="1" connectable="0" parent="49">
                    <mxGeometry x="0.4226" y="-2" relative="1" as="geometry">
                        <mxPoint y="-8" as="offset"/>
                    </mxGeometry>
                </mxCell>
                <mxCell id="50" value="" style="html=1;points=[];perimeter=orthogonalPerimeter;" vertex="1" parent="1">
                    <mxGeometry x="415" y="440" width="10" height="50" as="geometry"/>
                </mxCell>
                <mxCell id="52" value="Duration is question time, but may be less if everyone answers&amp;nbsp;" style="shape=note2;boundedLbl=1;whiteSpace=wrap;html=1;size=25;verticalAlign=top;align=center;" vertex="1" parent="1">
                    <mxGeometry x="710" y="420" width="120" height="100" as="geometry"/>
                </mxCell>
                <mxCell id="54" value="" style="endArrow=open;endFill=1;endSize=12;html=1;entryX=0.975;entryY=0.109;entryDx=0;entryDy=0;entryPerimeter=0;exitX=0.014;exitY=0.139;exitDx=0;exitDy=0;exitPerimeter=0;" edge="1" parent="1" source="50">
                    <mxGeometry width="160" relative="1" as="geometry">
                        <mxPoint x="470.0000000000001" y="450.00000000000017" as="sourcePoint"/>
                        <mxPoint x="270.83000000000004" y="450.00000000000017" as="targetPoint"/>
                    </mxGeometry>
                </mxCell>
                <mxCell id="56" value="" style="endArrow=open;endFill=1;endSize=12;html=1;exitX=0.014;exitY=0.139;exitDx=0;exitDy=0;exitPerimeter=0;" edge="1" parent="1">
                    <mxGeometry width="160" relative="1" as="geometry">
                        <mxPoint x="415.0000000000001" y="480.00000000000006" as="sourcePoint"/>
                        <mxPoint x="170" y="490" as="targetPoint"/>
                    </mxGeometry>
                </mxCell>
                <mxCell id="59" value="" style="endArrow=open;endFill=1;endSize=12;html=1;" edge="1" parent="1" source="5">
                    <mxGeometry width="160" relative="1" as="geometry">
                        <mxPoint x="270" y="510" as="sourcePoint"/>
                        <mxPoint x="420" y="530" as="targetPoint"/>
                        <Array as="points">
                            <mxPoint x="340" y="530"/>
                            <mxPoint x="360" y="530"/>
                        </Array>
                    </mxGeometry>
                </mxCell>
                <mxCell id="60" value="answer" style="edgeLabel;html=1;align=center;verticalAlign=middle;resizable=0;points=[];" vertex="1" connectable="0" parent="59">
                    <mxGeometry x="-0.284" relative="1" as="geometry">
                        <mxPoint x="-23" y="-10" as="offset"/>
                    </mxGeometry>
                </mxCell>
                <mxCell id="61" value="" style="endArrow=open;endFill=1;endSize=12;html=1;entryX=0;entryY=0.901;entryDx=0;entryDy=0;entryPerimeter=0;" edge="1" parent="1" target="47">
                    <mxGeometry width="160" relative="1" as="geometry">
                        <mxPoint x="414.99571428571426" y="529.64" as="sourcePoint"/>
                        <mxPoint x="565.21" y="529.64" as="targetPoint"/>
                        <Array as="points">
                            <mxPoint x="485.21000000000004" y="529.64"/>
                            <mxPoint x="505.21000000000004" y="529.64"/>
                        </Array>
                    </mxGeometry>
                </mxCell>
                <mxCell id="63" value="" style="endArrow=open;endFill=1;endSize=12;html=1;" edge="1" parent="1" source="2">
                    <mxGeometry width="160" relative="1" as="geometry">
                        <mxPoint x="274.4473684210527" y="550" as="sourcePoint"/>
                        <mxPoint x="425" y="550" as="targetPoint"/>
                        <Array as="points">
                            <mxPoint x="345" y="550"/>
                            <mxPoint x="365" y="550"/>
                        </Array>
                    </mxGeometry>
                </mxCell>
                <mxCell id="64" value="answer" style="edgeLabel;html=1;align=center;verticalAlign=middle;resizable=0;points=[];" vertex="1" connectable="0" parent="63">
                    <mxGeometry x="-0.284" relative="1" as="geometry">
                        <mxPoint x="-23" y="-10" as="offset"/>
                    </mxGeometry>
                </mxCell>
                <mxCell id="65" value="" style="endArrow=open;endFill=1;endSize=12;html=1;" edge="1" parent="1">
                    <mxGeometry width="160" relative="1" as="geometry">
                        <mxPoint x="414.99545454545444" y="550" as="sourcePoint"/>
                        <mxPoint x="630" y="550" as="targetPoint"/>
                        <Array as="points">
                            <mxPoint x="589.95" y="550"/>
                            <mxPoint x="609.95" y="550"/>
                        </Array>
                    </mxGeometry>
                </mxCell>
                <mxCell id="67" value="Answer is ignored because question did time out" style="shape=note2;boundedLbl=1;whiteSpace=wrap;html=1;size=25;verticalAlign=top;align=center;" vertex="1" parent="1">
                    <mxGeometry x="730" y="560" width="120" height="100" as="geometry"/>
                </mxCell>
                <mxCell id="72" value="" style="endArrow=open;endFill=1;endSize=12;html=1;exitX=-0.108;exitY=0.109;exitDx=0;exitDy=0;exitPerimeter=0;" edge="1" parent="1">
                    <mxGeometry width="160" relative="1" as="geometry">
                        <mxPoint x="415" y="580" as="sourcePoint"/>
                        <mxPoint x="270" y="580" as="targetPoint"/>
                    </mxGeometry>
                </mxCell>
                <mxCell id="76" value="" style="endArrow=open;endFill=1;endSize=12;html=1;exitX=-0.108;exitY=0.109;exitDx=0;exitDy=0;exitPerimeter=0;" edge="1" parent="1" target="2">
                    <mxGeometry width="160" relative="1" as="geometry">
                        <mxPoint x="415" y="609.69" as="sourcePoint"/>
                        <mxPoint x="270" y="609.69" as="targetPoint"/>
                    </mxGeometry>
                </mxCell>
            </root>
        </mxGraphModel>
    </diagram>
</mxfile>
